<svg xmlns="http://www.w3.org/2000/svg" viewBox="0 0 120 160" fill="none">
  <!-- Top cap (metal) -->
  <ellipse cx="60" cy="28" rx="36" ry="10" fill="#94a3b8"/>
  <rect x="24" y="22" width="72" height="12" fill="#94a3b8"/>
  <ellipse cx="60" cy="22" rx="36" ry="10" fill="#cbd5e1"/>
  <!-- Thread ring top -->
  <rect x="44" y="8" width="32" height="20" rx="5" fill="#64748b"/>
  <ellipse cx="60" cy="8" rx="16" ry="5" fill="#94a3b8"/>
  <!-- Filter body -->
  <rect x="22" y="28" width="76" height="108" rx="6" fill="#2563eb"/>
  <!-- Body gradient effect -->
  <rect x="22" y="28" width="18" height="108" rx="4" fill="white" opacity="0.08"/>
  <!-- Ridges / fins -->
  <rect x="22" y="44" width="76" height="4" rx="1" fill="#1d4ed8"/>
  <rect x="22" y="56" width="76" height="4" rx="1" fill="#1d4ed8"/>
  <rect x="22" y="68" width="76" height="4" rx="1" fill="#1d4ed8"/>
  <rect x="22" y="80" width="76" height="4" rx="1" fill="#1d4ed8"/>
  <rect x="22" y="92" width="76" height="4" rx="1" fill="#1d4ed8"/>
  <rect x="22" y="104" width="76" height="4" rx="1" fill="#1d4ed8"/>
  <rect x="22" y="116" width="76" height="4" rx="1" fill="#1d4ed8"/>
  <!-- Label -->
  <rect x="32" y="48" width="56" height="64" rx="6" fill="white" opacity="0.15"/>
  <text x="60" y="76" text-anchor="middle" font-size="10" fill="white" font-weight="bold" font-family="Arial">OIL</text>
  <text x="60" y="90" text-anchor="middle" font-size="10" fill="white" font-weight="bold" font-family="Arial">FILTER</text>
  <!-- Bottom cap -->
  <ellipse cx="60" cy="136" rx="38" ry="10" fill="#1e40af"/>
  <rect x="22" y="130" width="76" height="10" fill="#1e40af"/>
  <!-- Thread bottom -->
  <rect x="48" y="136" width="24" height="14" rx="3" fill="#1e3a8a"/>
  <ellipse cx="60" cy="150" rx="12" ry="4" fill="#1d4ed8"/>
</svg>
